# xmcd
#
# Track frame offsets: 
#        182
#        14547
#        31572
#        45752
#        61137
#        75225
#        89305
#        106737
#        121437
#        141572
#        157575
#
# Disc length: 2372 seconds
#
# Revision: 4
# Processed by: cddbd v1.5.2PL0 Copyright (c) Steve Scherf et al.
# Submitted via: ExactAudioCopy v0.99pb5
#
DISCID=7009420b
DTITLE=Brother Phelps - Anyway The Wind Blows
DYEAR=1995
DGENRE=country
TTITLE0=Anyway The Wind Blows
TTITLE1=Down Into Muddy Water
TTITLE2=Mary Ann Is A Pistol
TTITLE3=Not So Different After All
TTITLE4=Walls
TTITLE5=Cinderella
TTITLE6=I Ain't Ever Satisfied
TTITLE7=Ragtop
TTITLE8=The Other Kind
TTITLE9=Johnny
TTITLE10=Lookout Mountain
EXTD=
EXTT0=
EXTT1=
EXTT2=
EXTT3=
EXTT4=
EXTT5=
EXTT6=
EXTT7=
EXTT8=
EXTT9=
EXTT10=
PLAYORDER=
